<svg xmlns="http://www.w3.org/2000/svg" viewBox="0 0 42.735 42.735">
  <path fill="#EFEBD9" d="M20.72 19.981a.36.36 0 0 0 .607-.014L27.94 9c1.013-1.674 1.617-1.537 1.81.41.247 2.482.155 7.34 3.62 7.594a.99.99 0 0 1 .785.488 3.05 3.05 0 0 1 .375 1.959.64.64 0 0 1-.77.53c-.736-.17-1.168-.088-1.295.248-.245.613-.037.942.622.99 1.688.113 2.711 1.103 3.07 2.97a.99.99 0 0 1-1.408 1.081c-.546-.264-.999-.179-1.358.255-.834 1.018.156 2.73.863 3.507a.6.6 0 0 1-.36.997l-3.734.537a1.585 1.585 0 0 1-1.782-1.287l-.65-3.676a.866.866 0 0 0-.283-.51c-1.01-.867-2.117-1.084-3.324-.65a.888.888 0 0 0-.452.382l-2.518 4.398c-.476.847-1.69.851-2.187.01a1.285 1.285 0 0 1-.174-.59c-.108-2.852-1.598-4.515-4.47-4.992-.357-.057-.629.068-.812.375a7.816 7.816 0 0 0-1.11 4.051 1.484 1.484 0 0 1-1.5 1.485c-1.2 0-2.383-.279-3.457-.813a.97.97 0 0 1-.432-1.294 5.65 5.65 0 0 1 1.287-1.669c.595-.525.39-1.499-.368-1.753a1.057 1.057 0 0 0-.183-.043l-2.39-.325a.595.595 0 0 1-.446-.884c.886-1.536 2.209-2.378 3.967-2.524.514-.052.834-.325.962-.82l.127-.481c.108-.43-.052-.603-.48-.524l-2.285.404c-.462.077-.84-.367-.68-.8a.577.577 0 0 1 .065-.127c.986-1.513 2.369-2.35 4.15-2.51.378-.035.706-.267.863-.608a25.82 25.82 0 0 0 2.037-6.35c.283-1.537.81-1.626 1.584-.269 1.787 3.135 3.441 6.713 4.964 10.734.135.38.315.74.537 1.075Z"/>
</svg>
